<svg xmlns="http://www.w3.org/2000/svg" width="42.766" height="42.766" viewBox="0 0 42.766 42.766">
  <g id="Group_67" data-name="Group 67" transform="translate(-114 -204)">
    <path id="Path_91" data-name="Path 91" d="M169.788,306.639l.4-.655-.4-.655a24.08,24.08,0,0,0-4.814-5.322,21.711,21.711,0,0,0-28.436,0,24.323,24.323,0,0,0-4.851,5.319l-.41.66.41.66a24.323,24.323,0,0,0,4.851,5.319,21.711,21.711,0,0,0,28.436,0,24.079,24.079,0,0,0,4.814-5.322Zm-6.484,3.452a19.2,19.2,0,0,1-25.1,0,23.625,23.625,0,0,1-3.924-4.1,23.659,23.659,0,0,1,3.924-4.1,19.2,19.2,0,0,1,25.1,0,23.316,23.316,0,0,1,3.9,4.106,23.353,23.353,0,0,1-3.9,4.106Zm0,0" transform="translate(-15.353 -80.602)" fill="#f4f4f4"/>
    <path id="Path_92" data-name="Path 92" d="M245.93,328.4a7.528,7.528,0,1,0,7.528,7.528,7.537,7.537,0,0,0-7.528-7.528Zm0,12.551a5.023,5.023,0,1,1,5.022-5.023,5.028,5.028,0,0,1-5.022,5.023Zm0,0" transform="translate(-110.547 -110.548)" fill="#f4f4f4"/>
    <path id="Path_93" data-name="Path 93" d="M116.506,206.506h5.231V204H114v7.643h2.506Zm0,0" fill="#f4f4f4"/>
    <path id="Path_94" data-name="Path 94" d="M428.531,204v2.506h5.231v5.137h2.506V204Zm0,0" transform="translate(-279.502)" fill="#f4f4f4"/>
    <path id="Path_95" data-name="Path 95" d="M116.506,519.375H114v7.643h7.737v-2.506h-5.231Zm0,0" transform="translate(0 -280.252)" fill="#f4f4f4"/>
    <path id="Path_96" data-name="Path 96" d="M433.762,524.512h-5.231v2.506h7.737v-7.643h-2.506Zm0,0" transform="translate(-279.502 -280.252)" fill="#f4f4f4"/>
  </g>
</svg>
