<svg xmlns="http://www.w3.org/2000/svg" width="40.411" height="40.411" viewBox="0 0 40.411 40.411">
  <g id="Group_69" data-name="Group 69" transform="translate(-114 -204)">
    <path id="Path_98" data-name="Path 98" d="M150.672,398.217a4.736,4.736,0,1,0-6.878.01,7.151,7.151,0,0,0-2.016,1.666,8.341,8.341,0,0,0-3.731-3.975,5.92,5.92,0,1,0-7.684,0,8.341,8.341,0,0,0-3.731,3.975,7.151,7.151,0,0,0-2.016-1.666,4.736,4.736,0,1,0-6.878-.01A7.1,7.1,0,0,0,114,404.443v1.184a1.184,1.184,0,0,0,1.184,1.184h38.043a1.184,1.184,0,0,0,1.184-1.184v-1.184a7.1,7.1,0,0,0-3.739-6.226Zm-29.49-5.613a2.368,2.368,0,1,1-2.368,2.368,2.371,2.371,0,0,1,2.368-2.368Zm-4.815,11.839a4.775,4.775,0,0,1,9.55,0Zm17.838-16.575a3.552,3.552,0,1,1-3.552,3.552,3.556,3.556,0,0,1,3.552-3.552Zm5.92,16.575H128.286v-1.184a5.92,5.92,0,0,1,11.839,0Zm7.1-11.839a2.368,2.368,0,1,1-2.368,2.368,2.371,2.371,0,0,1,2.368-2.368Zm-4.736,11.839a4.775,4.775,0,0,1,9.55,0Zm0,0" transform="translate(0 -162.399)" fill="#f4f4f4"/>
    <path id="Path_99" data-name="Path 99" d="M224.877,249H205.934a1.184,1.184,0,0,0,0,2.368h18.943a1.184,1.184,0,1,0,0-2.368Zm0,0" transform="translate(-81.2 -40.264)" fill="#f4f4f4"/>
    <path id="Path_100" data-name="Path 100" d="M166.848,204H143.17a5.92,5.92,0,0,0-1.184,11.72v3.828a1.184,1.184,0,0,0,2.035.823l4.387-4.533h2.8l2.807,4.351a1.184,1.184,0,0,0,1.99,0l2.807-4.351h2.8L166,220.372a1.184,1.184,0,0,0,2.035-.823V215.72A5.92,5.92,0,0,0,166.848,204Zm0,9.471a1.184,1.184,0,0,0-1.184,1.184v1.968l-2.7-2.791a1.186,1.186,0,0,0-.851-.361h-3.946a1.184,1.184,0,0,0-.995.542l-2.162,3.352-2.162-3.352a1.184,1.184,0,0,0-.995-.542h-3.946a1.186,1.186,0,0,0-.851.361l-2.7,2.791v-1.968a1.184,1.184,0,0,0-1.184-1.184,3.552,3.552,0,0,1,0-7.1h23.678a3.552,3.552,0,0,1,0,7.1Zm0,0" transform="translate(-20.803)" fill="#f4f4f4"/>
  </g>
</svg>
