<svg xmlns="http://www.w3.org/2000/svg" width="50.698" height="45.288" viewBox="0 0 50.698 45.288">
  <path id="Path_97" data-name="Path 97" d="M94.389,199.6l6.309-6.309-6.309-6.309,1.017-1.017a4.511,4.511,0,0,0-6.379-6.379L88.01,180.6,81.7,174.294l-4.836,4.836v-6.182H67.943v-1.437a4.511,4.511,0,1,0-9.021,0v1.437H50v11.9h4.411a1.537,1.537,0,1,1,0,3.073H50v11.9H61.9V195.6a1.537,1.537,0,1,1,3.073,0v4.213H76.718a1.531,1.531,0,0,1-.449,1.083l-2.979,2.979,8.412,8.412,6.309-6.309.876.877a4.511,4.511,0,0,0,6.379-6.379Zm-20.5-11.682v8.922H67.943V195.6a4.511,4.511,0,1,0-9.021,0v1.239H52.974v-5.948h1.437a4.511,4.511,0,1,0,0-9.021H52.974v-5.948H61.9v-4.411a1.537,1.537,0,1,1,3.073,0v4.411h8.922v8.922H78.1a1.537,1.537,0,1,1,0,3.073Zm19.271,16.835a1.538,1.538,0,0,1-2.173,0l-2.979-2.979L81.7,208.082,77.5,203.876l.876-.876a4.511,4.511,0,0,0-1.506-7.374v-4.734H78.1a4.511,4.511,0,0,0,.221-9.016L81.7,178.5l6.309,6.309,3.119-3.119a1.537,1.537,0,0,1,2.173,2.173l-3.12,3.119,6.309,6.309L90.183,199.6l2.979,2.979a1.538,1.538,0,0,1,0,2.173Zm0,0" transform="translate(-50 -167)" fill="#f4f4f4"/>
</svg>
