<svg xmlns="http://www.w3.org/2000/svg" width="48.146" height="48.146" viewBox="0 0 48.146 48.146">
  <g id="Group_66" data-name="Group 66" transform="translate(-50 -140)">
    <path id="Path_85" data-name="Path 85" d="M58.468,177.233a3.925,3.925,0,0,0-1.9.484,22.2,22.2,0,0,1,21.921-35.4.94.94,0,0,0,.372-1.844A24.254,24.254,0,0,0,74.073,140,24.073,24.073,0,0,0,55.18,178.991a3.951,3.951,0,1,0,3.288-1.759Zm1.463,5.412a2.068,2.068,0,1,1,.606-1.463,2.054,2.054,0,0,1-.606,1.463Zm0,0" fill="#f4f4f4"/>
    <path id="Path_86" data-name="Path 86" d="M271.878,178.19a3.941,3.941,0,1,0-1.39,1.276,22.2,22.2,0,0,1-21.879,35.4.94.94,0,0,0-.369,1.844,24.268,24.268,0,0,0,4.747.468,24.073,24.073,0,0,0,18.892-38.993Zm-4.749-.727a2.069,2.069,0,1,1,1.463.606,2.055,2.055,0,0,1-1.463-.606Zm0,0" transform="translate(-178.914 -29.037)" fill="#f4f4f4"/>
    <path id="Path_87" data-name="Path 87" d="M137.219,247.288a.941.941,0,0,0,.94.94h5.88a.94.94,0,0,0,.94-.94v-1.823A14.728,14.728,0,0,0,148.509,244l1.287,1.287a.94.94,0,0,0,1.33,0l4.156-4.159a.941.941,0,0,0,0-1.33L154,238.515a14.723,14.723,0,0,0,1.463-3.529h1.816a.94.94,0,0,0,.94-.94v-5.88a.94.94,0,0,0-.94-.94h-1.816A14.726,14.726,0,0,0,154,223.7l1.279-1.279a.94.94,0,0,0,0-1.33l-4.159-4.156a.94.94,0,0,0-1.33,0l-1.277,1.277a14.725,14.725,0,0,0-3.529-1.463V214.94a.94.94,0,0,0-.94-.94h-5.88a.941.941,0,0,0-.94.94v1.806a14.712,14.712,0,0,0-3.529,1.462l-1.277-1.277a.941.941,0,0,0-1.33,0l-4.159,4.156a.94.94,0,0,0,0,1.33L128.2,223.7a14.721,14.721,0,0,0-1.463,3.529h-1.813a.94.94,0,0,0-.94.94l0,5.88a.94.94,0,0,0,.94.941h1.816a14.724,14.724,0,0,0,1.463,3.529l-1.286,1.286a.94.94,0,0,0,0,1.33l4.156,4.159a.941.941,0,0,0,.665.276h0a.94.94,0,0,0,.665-.276L133.69,244a14.741,14.741,0,0,0,3.529,1.463Zm-3.16-5.263a.941.941,0,0,0-1.175.125l-1.145,1.145-2.826-2.829,1.144-1.144a.94.94,0,0,0,.125-1.175,12.87,12.87,0,0,1-1.781-4.3.941.941,0,0,0-.919-.743h-1.615l0-4h1.613a.94.94,0,0,0,.919-.743,12.871,12.871,0,0,1,1.781-4.3.94.94,0,0,0-.125-1.175l-1.137-1.137,2.829-2.826,1.135,1.136a.941.941,0,0,0,1.175.125,12.865,12.865,0,0,1,4.3-1.781.941.941,0,0,0,.743-.919v-1.606h4v1.606a.94.94,0,0,0,.743.919,12.876,12.876,0,0,1,4.3,1.781.94.94,0,0,0,1.175-.125l1.136-1.135,2.829,2.826-1.137,1.137a.94.94,0,0,0-.125,1.175,12.879,12.879,0,0,1,1.781,4.3.94.94,0,0,0,.919.743h1.616v4h-1.616a.941.941,0,0,0-.919.743,12.868,12.868,0,0,1-1.781,4.3.941.941,0,0,0,.125,1.175l1.144,1.144-2.826,2.829-1.145-1.145a.94.94,0,0,0-1.175-.125,12.878,12.878,0,0,1-4.3,1.781.94.94,0,0,0-.743.919v1.622h-4v-1.622a.941.941,0,0,0-.743-.919,12.871,12.871,0,0,1-4.3-1.781Zm0,0" transform="translate(-67.027 -67.041)" fill="#f4f4f4"/>
    <path id="Path_88" data-name="Path 88" d="M238.911,321.141a7.77,7.77,0,1,0-7.77,7.77,7.779,7.779,0,0,0,7.77-7.77Zm-13.659,0a5.889,5.889,0,1,1,5.889,5.889,5.9,5.9,0,0,1-5.889-5.889Zm0,0" transform="translate(-157.068 -157.068)" fill="#f4f4f4"/>
    <path id="Path_89" data-name="Path 89" d="M389.018,159.691a.941.941,0,1,0-.664-.275.947.947,0,0,0,.664.275Zm0,0" transform="translate(-306.287 -16.134)" fill="#f4f4f4"/>
    <path id="Path_90" data-name="Path 90" d="M205.3,614.359a.941.941,0,1,0,.665.276.948.948,0,0,0-.665-.276Zm0,0" transform="translate(-139.844 -429.753)" fill="#f4f4f4"/>
  </g>
</svg>
